<svg width="130" height="50" viewBox="0 0 180 70" fill="none" xmlns="http://www.w3.org/2000/svg">
<g filter="url(#filter0_d)">
<path d="M81.88 17.36H92C94.2933 17.36 96.36 17.7067 98.2 18.4C100.04 19.0933 101.6 20.0667 102.88 21.32C104.16 22.5733 105.133 24.08 105.8 25.84C106.493 27.6 106.84 29.5467 106.84 31.68C106.84 33.8133 106.493 35.76 105.8 37.52C105.133 39.28 104.16 40.7867 102.88 42.04C101.6 43.2933 100.04 44.2667 98.2 44.96C96.36 45.6533 94.2933 46 92 46H81.88V17.36ZM91.68 40.08C93.2267 40.08 94.56 39.88 95.68 39.48C96.8 39.0533 97.72 38.4667 98.44 37.72C99.1867 36.9733 99.7333 36.0933 100.08 35.08C100.427 34.04 100.6 32.9067 100.6 31.68C100.6 30.4533 100.427 29.3333 100.08 28.32C99.7333 27.28 99.1867 26.3867 98.44 25.64C97.72 24.8933 96.8 24.32 95.68 23.92C94.56 23.4933 93.2267 23.28 91.68 23.28H88.12V40.08H91.68ZM113.896 24.24C113.363 24.24 112.869 24.1467 112.416 23.96C111.963 23.7467 111.563 23.48 111.216 23.16C110.896 22.8133 110.629 22.4133 110.416 21.96C110.229 21.5067 110.136 21.0133 110.136 20.48C110.136 19.9733 110.229 19.4933 110.416 19.04C110.629 18.56 110.896 18.16 111.216 17.84C111.563 17.4933 111.963 17.2267 112.416 17.04C112.869 16.8267 113.363 16.72 113.896 16.72C114.403 16.72 114.883 16.8267 115.336 17.04C115.816 17.2267 116.216 17.4933 116.536 17.84C116.883 18.16 117.149 18.56 117.336 19.04C117.549 19.4933 117.656 19.9733 117.656 20.48C117.656 21.0133 117.549 21.5067 117.336 21.96C117.149 22.4133 116.883 22.8133 116.536 23.16C116.216 23.48 115.816 23.7467 115.336 23.96C114.883 24.1467 114.403 24.24 113.896 24.24ZM110.896 46V26.4H116.896V46H110.896ZM133.793 45.84C133.26 46.0267 132.753 46.1467 132.273 46.2C131.82 46.28 131.287 46.32 130.673 46.32C128.567 46.32 126.9 45.7067 125.673 44.48C125.033 43.84 124.54 43.0533 124.193 42.12C123.847 41.16 123.673 40.1067 123.673 38.96V31.44H120.233V26.4H123.673V20.4H129.673V26.4H136.393V20.4H142.393V26.4H147.233V31.44H142.393V38.04C142.393 38.4667 142.447 38.8667 142.553 39.24C142.66 39.5867 142.847 39.88 143.113 40.12C143.513 40.4667 144.033 40.64 144.673 40.64C145.1 40.64 145.46 40.5867 145.753 40.48C146.047 40.3733 146.3 40.24 146.513 40.08L148.193 45.28C147.5 45.6 146.753 45.8533 145.953 46.04C145.153 46.2267 144.3 46.32 143.393 46.32C141.287 46.32 139.62 45.7067 138.393 44.48C137.753 43.84 137.26 43.0533 136.913 42.12C136.567 41.16 136.393 40.1067 136.393 38.96V31.44H129.673V38.04C129.673 38.4667 129.727 38.8667 129.833 39.24C129.94 39.5867 130.127 39.88 130.393 40.12C130.793 40.4667 131.313 40.64 131.953 40.64C132.3 40.64 132.607 40.6 132.873 40.52C133.14 40.44 133.447 40.32 133.793 40.16V45.84ZM160.485 25.76C162.005 25.76 163.405 26.0267 164.685 26.56C165.991 27.0667 167.111 27.7867 168.045 28.72C169.005 29.6267 169.738 30.72 170.245 32C170.778 33.28 171.045 34.68 171.045 36.2C171.045 37.72 170.778 39.12 170.245 40.4C169.738 41.68 169.005 42.7867 168.045 43.72C167.111 44.6267 165.991 45.3467 164.685 45.88C163.405 46.3867 162.005 46.64 160.485 46.64C158.965 46.64 157.551 46.3867 156.245 45.88C154.965 45.3467 153.845 44.6267 152.885 43.72C151.951 42.7867 151.218 41.68 150.685 40.4C150.178 39.12 149.925 37.72 149.925 36.2C149.925 34.68 150.178 33.28 150.685 32C151.218 30.72 151.951 29.6267 152.885 28.72C153.845 27.7867 154.965 27.0667 156.245 26.56C157.551 26.0267 158.965 25.76 160.485 25.76ZM160.485 41.04C161.098 41.04 161.671 40.9333 162.205 40.72C162.765 40.48 163.258 40.16 163.685 39.76C164.111 39.3333 164.445 38.8267 164.685 38.24C164.925 37.6267 165.045 36.9467 165.045 36.2C165.045 35.4533 164.925 34.7867 164.685 34.2C164.445 33.6133 164.111 33.1067 163.685 32.68C163.258 32.2533 162.765 31.9333 162.205 31.72C161.671 31.48 161.098 31.36 160.485 31.36C159.871 31.36 159.285 31.48 158.725 31.72C158.191 31.9333 157.711 32.2533 157.285 32.68C156.858 33.1067 156.525 33.6133 156.285 34.2C156.045 34.7867 155.925 35.4533 155.925 36.2C155.925 36.9467 156.045 37.6267 156.285 38.24C156.525 38.8267 156.858 39.3333 157.285 39.76C157.711 40.16 158.191 40.48 158.725 40.72C159.285 40.9333 159.871 41.04 160.485 41.04Z" fill="#FFFBFE"/>
</g>
<g filter="url(#filter1_d)">
<path d="M49.9572 37.3851L61.3191 30.7861V17.6166L49.9572 24.2157V37.3851ZM47.1167 19.2234L58.4786 12.653L47.1167 5.91047L35.7549 12.653L47.1167 19.2234ZM32.9144 30.7861L44.2763 37.3851V24.2157L32.9144 17.6166V30.7861ZM64.8128 9.66907C66.2331 10.5872 67 11.8209 67 13.4564V31.5894C67 33.2249 66.2331 34.4586 64.8128 35.3767L49.2471 44.5006C47.8268 45.4188 46.4066 45.4188 44.9864 44.5006L29.4206 35.3767C28.0004 34.4586 27.2335 33.2249 27.2335 31.5894V13.4564C27.2335 11.8209 28.0004 10.5872 29.4206 9.66907L44.9864 0.545141C45.6965 0.17215 46.4066 0 47.1167 0C47.8268 0 48.537 0.17215 49.2471 0.545141L64.8128 9.66907Z" fill="#FFFBFE"/>
</g>
<g filter="url(#filter2_d)">
<path d="M22.7237 53.5555L34.0856 46.9565V33.787L22.7237 40.3861V53.5555ZM19.8833 35.3937L31.2451 28.8234L19.8833 22.0808L8.5214 28.8234L19.8833 35.3937ZM5.68093 46.9565L17.0428 53.5555V40.3861L5.68093 33.787V46.9565ZM37.5794 25.8394C38.9996 26.7576 39.7665 27.9913 39.7665 29.6267V47.7598C39.7665 49.3952 38.9996 50.629 37.5794 51.5471L22.0136 60.671C20.5934 61.5892 19.1732 61.5892 17.7529 60.671L2.18716 51.5471C0.766926 50.629 0 49.3952 0 47.7598V29.6267C0 27.9913 0.766926 26.7576 2.18716 25.8394L17.7529 16.7155C18.463 16.3425 19.1732 16.1704 19.8833 16.1704C20.5934 16.1704 21.3035 16.3425 22.0136 16.7155L37.5794 25.8394Z" fill="#FFFBFE"/>
</g>
<defs>
<filter id="filter0_d" x="81.88" y="16.72" width="97.1647" height="37.92" filterUnits="userSpaceOnUse" color-interpolation-filters="sRGB">
<feFlood flood-opacity="0" result="BackgroundImageFix"/>
<feColorMatrix in="SourceAlpha" type="matrix" values="0 0 0 0 0 0 0 0 0 0 0 0 0 0 0 0 0 0 127 0"/>
<feOffset dx="4" dy="4"/>
<feGaussianBlur stdDeviation="2"/>
<feColorMatrix type="matrix" values="0 0 0 0 0 0 0 0 0 0 0 0 0 0 0 0 0 0 0.1 0"/>
<feBlend mode="normal" in2="BackgroundImageFix" result="effect1_dropShadow"/>
<feBlend mode="normal" in="SourceGraphic" in2="effect1_dropShadow" result="shape"/>
</filter>
<filter id="filter1_d" x="27.2335" y="0" width="47.7665" height="53.1892" filterUnits="userSpaceOnUse" color-interpolation-filters="sRGB">
<feFlood flood-opacity="0" result="BackgroundImageFix"/>
<feColorMatrix in="SourceAlpha" type="matrix" values="0 0 0 0 0 0 0 0 0 0 0 0 0 0 0 0 0 0 127 0"/>
<feOffset dx="4" dy="4"/>
<feGaussianBlur stdDeviation="2"/>
<feColorMatrix type="matrix" values="0 0 0 0 0 0 0 0 0 0 0 0 0 0 0 0 0 0 0.1 0"/>
<feBlend mode="normal" in2="BackgroundImageFix" result="effect1_dropShadow"/>
<feBlend mode="normal" in="SourceGraphic" in2="effect1_dropShadow" result="shape"/>
</filter>
<filter id="filter2_d" x="0" y="16.1704" width="47.7665" height="53.1892" filterUnits="userSpaceOnUse" color-interpolation-filters="sRGB">
<feFlood flood-opacity="0" result="BackgroundImageFix"/>
<feColorMatrix in="SourceAlpha" type="matrix" values="0 0 0 0 0 0 0 0 0 0 0 0 0 0 0 0 0 0 127 0"/>
<feOffset dx="4" dy="4"/>
<feGaussianBlur stdDeviation="2"/>
<feColorMatrix type="matrix" values="0 0 0 0 0 0 0 0 0 0 0 0 0 0 0 0 0 0 0.1 0"/>
<feBlend mode="normal" in2="BackgroundImageFix" result="effect1_dropShadow"/>
<feBlend mode="normal" in="SourceGraphic" in2="effect1_dropShadow" result="shape"/>
</filter>
</defs>
</svg>
