<svg width="41" height="41" viewBox="0 0 71 71" fill="none" xmlns="http://www.w3.org/2000/svg">
<path d="M53.25 71V63.9H63.9V53.25H71V65.675C71 67.0595 70.432 68.302 69.367 69.367C68.302 70.432 67.0595 71 65.675 71H53.25ZM17.75 71H5.325C3.9405 71 2.698 70.432 1.633 69.367C0.568 68.302 0 67.0595 0 65.675V53.25H7.1V63.9H17.75V71ZM53.25 0H65.675C67.0595 0 68.302 0.568 69.367 1.633C70.432 2.698 71 3.9405 71 5.325V17.75H63.9V7.1H53.25V0ZM17.75 0V7.1H7.1V17.75H0V5.325C0 3.9405 0.568 2.698 1.633 1.633C2.698 0.568 3.9405 0 5.325 0H17.75ZM39.05 54.1375L53.25 45.9725V29.678L39.05 37.843V54.1375ZM35.5 31.666L49.7 23.5365L35.5 15.194L21.3 23.5365L35.5 31.666ZM17.75 45.9725L31.95 54.1375V37.843L17.75 29.678V45.9725ZM57.6165 19.8445C59.3915 20.9805 60.35 22.507 60.35 24.5305V46.9665C60.35 48.99 59.3915 50.5165 57.6165 51.6525L38.1625 62.9415C36.3875 64.0775 34.6125 64.0775 32.8375 62.9415L13.3835 51.6525C11.6085 50.5165 10.65 48.99 10.65 46.9665V24.5305C10.65 22.507 11.6085 20.9805 13.3835 19.8445L32.8375 8.5555C33.725 8.094 34.6125 7.881 35.5 7.881C36.3875 7.881 37.275 8.094 38.1625 8.5555L57.6165 19.8445Z" fill="#FFFBFE"/>
</svg>
