<svg width="33" height="33" viewBox="0 0 48 48" fill="none" xmlns="http://www.w3.org/2000/svg">
<path d="M23.9935 15.9963C19.5867 15.9963 15.9903 19.5927 15.9903 23.9996C15.9903 28.4064 19.5867 32.0028 23.9935 32.0028C28.4004 32.0028 31.9968 28.4064 31.9968 23.9996C31.9968 19.5927 28.4004 15.9963 23.9935 15.9963ZM47.9973 23.9996C47.9973 20.6854 48.0273 17.4012 47.8412 14.093C47.6551 10.2505 46.7785 6.84028 43.9687 4.03043C41.1528 1.21458 37.7486 0.344011 33.9061 0.157888C30.5919 -0.028234 27.3077 0.00178584 23.9996 0.00178584C20.6854 0.00178584 17.4012 -0.028234 14.093 0.157888C10.2505 0.344011 6.84028 1.22059 4.03043 4.03043C1.21458 6.84628 0.344011 10.2505 0.157888 14.093C-0.028234 17.4072 0.00178584 20.6914 0.00178584 23.9996C0.00178584 27.3077 -0.028234 30.5979 0.157888 33.9061C0.344011 37.7486 1.22059 41.1588 4.03043 43.9687C6.84628 46.7845 10.2505 47.6551 14.093 47.8412C17.4072 48.0273 20.6914 47.9973 23.9996 47.9973C27.3137 47.9973 30.5979 48.0273 33.9061 47.8412C37.7486 47.6551 41.1588 46.7785 43.9687 43.9687C46.7845 41.1528 47.6551 37.7486 47.8412 33.9061C48.0333 30.5979 47.9973 27.3137 47.9973 23.9996ZM23.9935 36.3136C17.1791 36.3136 11.6795 30.814 11.6795 23.9996C11.6795 17.1851 17.1791 11.6855 23.9935 11.6855C30.808 11.6855 36.3076 17.1851 36.3076 23.9996C36.3076 30.814 30.808 36.3136 23.9935 36.3136ZM36.812 14.057C35.2209 14.057 33.9361 12.7722 33.9361 11.1811C33.9361 9.59009 35.2209 8.30524 36.812 8.30524C38.403 8.30524 39.6879 9.59009 39.6879 11.1811C39.6883 11.5589 39.6143 11.9331 39.4699 12.2822C39.3256 12.6314 39.1137 12.9486 38.8466 13.2157C38.5794 13.4829 38.2622 13.6947 37.9131 13.8391C37.564 13.9834 37.1898 14.0575 36.812 14.057Z" fill="#D52941"/>
</svg>
