<svg width="41" height="41" viewBox="0 0 71 72" fill="none" xmlns="http://www.w3.org/2000/svg">
<path d="M70.1802 0.86257C69.7804 0.464724 69.2755 0.189271 68.7246 0.0685973C68.1737 -0.0520766 67.5997 -0.0129551 67.0703 0.181362L1.91138 23.8755C1.34944 24.0887 0.865643 24.4677 0.524243 24.9624C0.182843 25.457 0 26.0438 0 26.6448C0 27.2458 0.182843 27.8326 0.524243 28.3272C0.865643 28.8218 1.34944 29.2009 1.91138 29.414L27.353 39.5729L46.1306 20.736L50.3067 24.9121L31.4402 43.7786L41.6287 69.2202C41.8482 69.7713 42.2281 70.2438 42.7192 70.5765C43.2103 70.9091 43.79 71.0867 44.3832 71.0861C44.9817 71.0739 45.5625 70.8805 46.0489 70.5315C46.5353 70.1826 46.9046 69.6944 47.108 69.1314L70.8021 3.97243C71.0039 3.44842 71.0526 2.87785 70.9425 2.32723C70.8324 1.77662 70.568 1.26866 70.1802 0.86257Z" fill="#FFFBFE"/>
</svg>
