<svg width="41" height="41" viewBox="0 0 71 71" fill="none" xmlns="http://www.w3.org/2000/svg">
<path d="M70.9392 34.9499L65.8677 12.1284C65.7261 11.4904 65.3437 10.9318 64.8002 10.5689L49.5858 0.426002C49.1691 0.148122 48.6794 -0.000112301 48.1785 6.38344e-08H22.8212C22.3203 -0.000112301 21.8306 0.148122 21.4139 0.426002L6.19951 10.5689C5.65601 10.9318 5.27358 11.4904 5.13197 12.1284L0.0605172 34.9499C-0.0334772 35.3729 -0.0177648 35.8128 0.106161 36.2279L7.71334 61.5852C7.83362 61.9872 8.0518 62.3532 8.34832 62.6501C8.64483 62.9471 9.01041 63.1658 9.41228 63.2867L34.7695 70.8939H34.7848C35.2512 71.0341 35.7485 71.0341 36.2149 70.8939H36.2276L61.5849 63.2867C61.9869 63.1664 62.3528 62.9482 62.6498 62.6517C62.9467 62.3552 63.1655 61.9896 63.2863 61.5877L70.8935 36.2305C71.0179 35.8145 71.0336 35.3737 70.9392 34.9499ZM22.6336 37.0622L12.7189 17.2353L31.184 23.9499L22.6336 37.0622ZM35.4998 26.6175L44.6006 40.5716H26.3966L35.4998 26.6175ZM44.0757 45.6431L35.4998 62.7947L26.924 45.6431H44.0757ZM39.8156 23.9499L58.2783 17.2353L48.3636 37.0647L39.8156 23.9499ZM41.0531 18.1051L48.9037 6.068L57.8168 12.0092L41.0531 18.1051ZM35.4998 17.3342L27.5022 5.07145H43.4975L35.4998 17.3342ZM29.9466 18.1051L13.1854 12.0092L22.096 6.068L29.9466 18.1051ZM17.6635 38.467L5.48697 33.9001L8.53238 20.2021L17.6635 38.467ZM30.6059 64.3491L14.1186 59.4045L22.0503 47.2381L30.6059 64.3491ZM48.9468 47.2381L56.8811 59.4019L40.3938 64.3491L48.9468 47.2381ZM62.4673 20.2021L65.5102 33.9001L53.3336 38.4644L62.4673 20.2021ZM6.4328 39.6715L18.0845 44.038L11.0022 54.8985L6.4328 39.6715ZM59.9975 54.8985L52.9152 44.038L64.5669 39.6715L59.9975 54.8985Z" fill="#FFFBFE"/>
</svg>
